<?xml version="1.0" encoding="UTF-8" standalone="no"?>
<!DOCTYPE svg PUBLIC "-//W3C//DTD SVG 1.1//EN" "http://www.w3.org/Graphics/SVG/1.1/DTD/svg11.dtd">
<svg width="100%" height="100%" viewBox="0 0 769 181" version="1.1" xmlns="http://www.w3.org/2000/svg" xmlns:xlink="http://www.w3.org/1999/xlink" xml:space="preserve" xmlns:serif="http://www.serif.com/" style="fill-rule:evenodd;clip-rule:evenodd;stroke-linejoin:round;stroke-miterlimit:2;">
    <g transform="matrix(1,0,0,1,0,12.2373)">
        <path d="M505.05,105.646C505.05,110.962 502.457,113.169 497.569,113.169L476.821,113.169C458.268,113.169 453.979,100.43 453.979,84.381C453.979,68.333 458.268,55.594 477.819,55.594L503.753,55.594L503.753,61.813L480.412,61.813C466.148,61.813 461.959,68.734 461.959,84.281C461.959,99.929 466.148,106.75 479.315,106.75L493.778,106.75C496.671,106.75 497.569,105.746 497.569,102.938L497.569,85.786L505.15,85.786L505.15,105.646L505.05,105.646Z" style="fill:white;fill-rule:nonzero;"/>
    </g>
    <g transform="matrix(1,0,0,1,0,12.0366)">
        <path d="M521.309,113.269C517.12,113.269 514.027,111.664 514.027,106.348L514.027,55.694L521.608,55.694L521.608,103.539C521.608,106.047 522.406,106.95 525.199,106.95L556.919,106.95L556.919,113.169L521.309,113.169L521.309,113.269Z" style="fill:white;fill-rule:nonzero;"/>
    </g>
    <g transform="matrix(1,0,0,1,0,12.1355)">
        <path d="M613.477,84.483C613.477,106.55 605.996,113.872 584.949,113.872C564.001,113.872 556.421,106.449 556.421,84.483C556.421,62.415 564.001,55.093 584.949,55.093C606.095,54.993 613.477,62.415 613.477,84.483ZM585.048,107.653C601.307,107.653 605.597,101.936 605.597,84.483C605.597,67.129 601.307,61.313 585.048,61.313C568.789,61.313 564.5,67.129 564.5,84.483C564.4,101.835 568.69,107.653 585.048,107.653Z" style="fill:white;fill-rule:nonzero;"/>
    </g>
    <g transform="matrix(1,0,0,1,0,12.1363)">
        <path d="M670.832,97.521C670.832,105.947 668.538,113.169 658.364,113.169L630.534,113.169C625.846,113.169 622.454,111.564 622.454,105.245L622.454,63.819C622.454,58.503 625.048,55.695 629.935,55.695L657.765,55.695C666.443,55.695 670.034,61.312 670.034,71.342C670.034,77.661 668.438,82.977 662.154,83.88L662.154,84.181C668.438,84.983 670.832,89.096 670.832,97.521ZM630.135,81.071L654.374,81.071C660.758,81.071 662.154,78.062 662.154,71.242C662.154,65.625 660.758,61.913 654.972,61.913L633.826,61.913C631.132,61.913 630.135,62.716 630.135,65.625L630.135,81.071ZM630.135,102.737C630.135,105.947 630.634,107.05 633.925,107.05L654.673,107.05C661.057,107.05 663.052,104.142 663.052,97.22C663.052,91.302 661.456,87.391 655.371,87.391L630.235,87.391L630.235,102.737L630.135,102.737Z" style="fill:white;fill-rule:nonzero;"/>
    </g>
    <g transform="matrix(1,0,0,1,0,12.1363)">
        <path d="M688.189,113.169C683.201,113.169 680.209,110.762 680.209,105.044L680.209,63.819C680.209,57.701 683.201,55.695 688.189,55.695L723.599,55.695L723.599,61.913L691.58,61.913C688.388,61.913 687.79,62.917 687.79,65.725L687.79,80.57L722.801,80.57L722.801,86.789L687.79,86.789L687.79,102.938C687.79,105.847 688.388,106.85 691.58,106.85L723.899,106.85L723.899,113.069L688.189,113.069L688.189,113.169Z" style="fill:white;fill-rule:nonzero;"/>
    </g>
    <g transform="matrix(1,0,0,1,0,12.2379)">
        <path d="M223.958,56.396L280.117,56.396C285.204,56.396 289.693,58.402 293.483,62.514C295.777,65.323 296.974,68.332 296.974,71.642L296.974,97.32C296.974,102.035 294.48,106.147 289.593,109.557C286.401,111.363 283.309,112.366 280.416,112.366L223.958,112.366C223.759,112.366 223.759,112.266 223.759,112.065L223.759,56.596C223.759,56.496 223.858,56.396 223.958,56.396ZM240.816,69.636L240.816,99.025L271.439,99.025C275.329,99.025 278.022,96.919 279.618,92.606C279.817,91.703 280.017,90.901 280.017,89.998L280.017,78.764C280.017,74.651 278.122,71.742 274.231,70.138C273.433,69.837 272.436,69.636 271.339,69.636L240.816,69.636Z" style="fill:rgb(50,168,98);fill-rule:nonzero;"/>
    </g>
    <g transform="matrix(1,0,0,1,0,12.2379)">
        <path d="M302.261,56.396L375.077,56.396C375.277,56.396 375.277,56.496 375.277,56.697L375.277,69.435C375.277,69.636 375.177,69.736 375.077,69.736L302.261,69.736C302.061,69.736 302.061,69.636 302.061,69.435L302.061,56.697C302.061,56.496 302.061,56.396 302.261,56.396ZM302.261,78.262L375.077,78.262C375.277,78.262 375.277,78.363 375.277,78.563L375.277,90.199C375.277,90.399 375.177,90.5 375.077,90.5L302.261,90.5C302.061,90.5 302.061,90.399 302.061,90.199L302.061,78.563C302.061,78.363 302.061,78.262 302.261,78.262ZM302.261,99.025L375.077,99.025C375.277,99.025 375.277,99.126 375.277,99.226L375.277,112.065C375.277,112.266 375.177,112.366 375.077,112.366L302.261,112.366C302.061,112.366 302.061,112.266 302.061,112.065L302.061,99.326C302.061,99.126 302.061,99.025 302.261,99.025Z" style="fill:rgb(50,168,98);fill-rule:nonzero;"/>
    </g>
    <g transform="matrix(1,0,0,1,0,12.1359)">
        <path d="M377.671,56.497L397.222,56.497C397.82,57.199 400.015,61.011 403.805,68.032C404.104,68.433 408.693,76.558 417.57,92.306L417.67,92.306C430.937,68.734 437.62,56.798 437.819,56.497L457.47,56.497C457.47,56.798 452.482,65.825 442.408,83.379C434.627,97.421 429.141,107.051 426.049,112.367L408.992,112.367C408.194,111.163 397.92,92.808 378.17,57.4C378.07,57.5 377.87,57.099 377.671,56.497Z" style="fill:rgb(50,168,98);fill-rule:nonzero;"/>
    </g>
    <g transform="matrix(1,0,0,1,0,-70.303)">
        <path d="M753.502,125.652C755.249,125.652 756.392,124.703 756.392,122.956C756.392,121.209 755.249,120.368 753.459,120.368L750.677,120.368L750.677,125.652L753.502,125.652ZM748.197,118.104L753.61,118.104C756.845,118.104 758.915,119.829 758.915,122.913C758.915,125.242 757.621,126.708 755.788,127.355L759.324,133.199L756.435,133.199L753.243,127.873C753.222,127.851 752.445,127.873 752.424,127.873L750.677,127.873L750.677,133.199L748.197,133.199L748.197,118.104" style="fill:white;fill-rule:nonzero;"/>
    </g>
    <g transform="matrix(1,0,0,1,0,-70.32)">
        <path d="M753.276,113.041C751.571,113.041 749.919,113.374 748.364,114.032C746.861,114.667 745.512,115.577 744.352,116.737C743.193,117.896 742.283,119.246 741.647,120.749C740.989,122.303 740.656,123.956 740.656,125.66C740.656,127.364 740.989,129.017 741.647,130.572C742.283,132.075 743.193,133.424 744.352,134.584C745.512,135.743 746.861,136.653 748.364,137.289C749.919,137.946 751.571,138.28 753.276,138.28C754.98,138.28 756.632,137.946 758.187,137.289C759.69,136.653 761.039,135.743 762.199,134.584C763.358,133.424 764.268,132.075 764.904,130.572C765.562,129.017 765.895,127.364 765.895,125.66C765.895,123.956 765.562,122.303 764.904,120.749C764.268,119.246 763.358,117.896 762.199,116.737C761.039,115.577 759.69,114.667 758.187,114.032C756.632,113.374 754.98,113.041 753.276,113.041ZM753.276,140.895C751.219,140.895 749.224,140.492 747.345,139.697C745.531,138.93 743.901,137.832 742.503,136.433C741.104,135.034 740.006,133.405 739.238,131.591C738.443,129.712 738.04,127.716 738.04,125.66C738.04,123.604 738.443,121.609 739.238,119.73C740.006,117.915 741.104,116.286 742.503,114.887C743.901,113.489 745.531,112.39 747.345,111.623C749.224,110.828 751.219,110.425 753.276,110.425C755.332,110.425 757.327,110.828 759.206,111.623C761.02,112.39 762.65,113.489 764.048,114.887C765.447,116.286 766.545,117.915 767.313,119.73C768.108,121.609 768.511,123.604 768.511,125.66C768.511,127.716 768.108,129.712 767.313,131.591C766.545,133.405 765.447,135.034 764.048,136.433C762.65,137.832 761.02,138.93 759.206,139.697C757.327,140.492 755.332,140.895 753.276,140.895" style="fill:white;fill-rule:nonzero;"/>
    </g>
    <g transform="matrix(1,0,0,1,0,-14.5445)">
        <path d="M51.593,118.485C53.987,110.26 56.78,101.834 59.772,93.71C61.867,87.993 64.061,82.476 66.355,77.06C56.381,82.275 47.304,88.093 39.423,94.312C41.518,101.533 44.012,108.856 47.104,116.278C48.6,117.081 50.097,117.783 51.593,118.485Z" style="fill:white;"/>
    </g>
    <g transform="matrix(1,0,0,1,0,-64.798)">
        <path d="M62.066,117.783C51.992,115.175 42.316,113.27 33.538,112.166C34.037,118.887 35.034,126.109 36.73,133.632C44.311,128.014 52.79,122.598 62.066,117.783Z" style="fill:white;"/>
    </g>
    <g transform="matrix(1,0,0,1,0,0.7007)">
        <path d="M41.119,98.024C39.024,92.707 37.229,87.391 35.733,82.276C32.64,84.884 29.848,87.592 27.254,90.3C31.643,92.908 36.231,95.516 41.119,98.024Z" style="fill:white;"/>
    </g>
    <g transform="matrix(1,0,0,1,0,66.6022)">
        <path d="M93.687,60.91C88.599,59.205 83.512,57.5 78.325,55.494C69.647,52.184 61.268,48.773 53.189,45.062C52.989,45.864 52.79,46.567 52.59,47.369C56.381,55.193 60.57,62.515 64.959,69.336C74.236,67.53 83.911,64.621 93.687,60.91Z" style="fill:white;"/>
    </g>
    <g transform="matrix(1,0,0,1,0,77.6347)">
        <path d="M60.171,59.105C56.979,53.99 53.887,48.573 50.894,42.956C49.398,49.075 48.201,54.892 47.204,60.409C51.393,60.209 55.682,59.807 60.171,59.105Z" style="fill:white;"/>
    </g>
    <g transform="matrix(1,0,0,1,0,-52.761)">
        <path d="M131.691,118.285C132.489,119.89 133.187,121.495 133.985,123.1C134.484,124.103 134.783,125.106 135.282,126.109C143.162,130.021 150.543,134.033 157.227,138.045C167.002,126.309 170.693,115.376 167.201,107.853C163.71,100.13 152.538,95.716 136.678,95.716C135.382,102.838 133.686,110.461 131.691,118.285Z" style="fill:white;"/>
    </g>
    <g transform="matrix(1,0,0,1,0,-129.996)">
        <path d="M70.744,178.769C70.844,178.769 70.944,178.668 71.044,178.668C71.742,178.368 72.34,178.067 73.039,177.766C78.824,165.629 84.809,154.796 90.794,145.768C83.911,139.449 76.929,134.835 70.246,132.227C64.261,133.632 58.376,135.537 52.59,138.246C46.805,140.954 41.418,144.164 36.431,147.875C34.236,154.294 33.139,162.218 33.239,171.045C44.61,172.349 57.378,175.057 70.744,178.769Z" style="fill:white;"/>
    </g>
    <g transform="matrix(1,0,0,1,0,144.739)">
        <path d="M66.655,1.53C59.373,2.934 52.391,3.637 45.708,3.837C44.81,11.36 44.411,18.181 44.61,23.898C53.588,29.114 63.363,32.825 73.537,34.731C76.829,31.12 80.32,26.707 83.911,21.591C78.026,15.974 72.141,9.153 66.655,1.53Z" style="fill:white;"/>
    </g>
    <g transform="matrix(1,0,0,1,0,-144.739)">
        <path d="M113.437,179.47C120.719,178.066 127.701,177.364 134.284,177.163C134.584,174.856 134.883,172.549 134.983,170.342C135.382,165.528 135.481,161.114 135.382,157.102C126.404,151.886 116.629,148.175 106.454,146.269C103.163,149.88 99.672,154.293 96.081,159.409C102.066,165.026 107.851,171.847 113.437,179.47Z" style="fill:white;"/>
    </g>
    <g transform="matrix(1,0,0,1,0,49.7515)">
        <path d="M167.501,49.977C165.705,48.673 163.71,47.268 161.715,45.965C157.426,50.579 152.638,55.092 147.152,59.506C149.147,68.132 150.444,76.558 150.843,84.482C155.83,84.983 160.518,85.284 164.807,85.284C166.004,85.284 167.201,85.284 168.398,85.184C172.987,76.959 176.279,68.032 178.174,58.804C175.181,55.895 171.69,52.986 167.501,49.977Z" style="fill:white;"/>
    </g>
    <g transform="matrix(1,0,0,1,0,130.095)">
        <path d="M146.653,9.955C135.282,8.551 122.614,5.843 109.347,2.131C109.247,2.131 109.148,2.232 109.048,2.232C108.35,2.533 107.751,2.834 107.053,3.134C101.268,15.271 95.283,26.104 89.298,35.132C96.28,41.451 103.163,46.065 109.846,48.773C115.831,47.369 121.716,45.463 127.402,42.755C133.187,40.147 138.574,36.937 143.461,33.226C145.556,27.208 146.653,19.785 146.653,11.159L146.653,9.955Z" style="fill:white;"/>
    </g>
    <g transform="matrix(1,0,0,1,0,52.7603)">
        <path d="M48.401,62.716C47.603,61.111 46.905,59.506 46.107,57.901C45.608,56.898 45.209,55.895 44.81,54.892C36.93,51.08 29.648,47.068 22.965,42.956C13.189,54.691 9.499,65.624 12.99,73.147C16.481,80.871 27.653,85.284 43.613,85.284C44.81,78.163 46.406,70.539 48.401,62.716Z" style="fill:white;"/>
    </g>
    <g transform="matrix(1,0,0,1,0,0.1003)">
        <path d="M104.759,122.798C106.055,122.196 107.252,121.595 108.549,120.993C111.342,114.573 114.135,107.652 116.828,100.43C119.921,92.005 122.714,83.579 125.107,75.354C117.028,71.643 108.449,68.032 99.572,64.722C92.091,61.913 84.709,59.406 77.328,57.199C76.63,57.5 76.031,57.801 75.333,58.102C74.036,58.704 72.839,59.306 71.542,59.907C68.75,66.327 65.957,73.248 63.263,80.47C60.071,89.196 57.278,97.521 54.884,105.546C62.964,109.257 71.542,112.868 80.42,116.178C87.901,118.987 95.283,121.494 102.664,123.701C103.362,123.3 104.06,123.099 104.759,122.798Z" style="fill:white;"/>
    </g>
    <g transform="matrix(1,0,0,1,0,-49.7522)">
        <path d="M18.277,135.036C22.466,130.422 27.354,125.908 32.74,121.595C30.645,112.768 29.448,104.342 28.95,96.519C23.962,96.017 19.374,95.716 15.184,95.716C13.888,95.716 12.79,95.716 11.594,95.817C7.005,104.042 3.713,112.969 1.818,122.197C4.81,125.005 8.402,128.014 12.491,131.024C14.386,132.428 16.282,133.732 18.277,135.036Z" style="fill:white;"/>
    </g>
    <g transform="matrix(1,0,0,1,0,-77.435)">
        <path d="M132.788,120.491C128.698,120.691 124.309,121.092 119.921,121.795C123.112,126.91 126.205,132.226 129.097,137.944C130.594,131.825 131.791,126.007 132.788,120.491Z" style="fill:white;"/>
    </g>
    <g transform="matrix(1,0,0,1,0,-117.958)">
        <path d="M28.85,158.406C28.85,151.886 29.448,145.868 30.546,140.552C24.76,145.667 19.773,151.385 15.484,157.704C19.673,157.704 24.062,157.904 28.85,158.406Z" style="fill:white;"/>
    </g>
    <g transform="matrix(1,0,0,1,0,-169.215)">
        <path d="M93.288,181.276C96.18,177.064 99.073,173.352 101.966,170.042C93.986,168.939 85.807,168.939 77.627,170.042C82.814,172.851 88.101,176.562 93.288,181.276Z" style="fill:white;"/>
    </g>
    <g transform="matrix(0.604976,-0.796244,-0.796244,-0.604976,70.6954,152.631)">
        <path d="M15.544,82.904C15.417,85.062 15.289,87.219 15.301,89.358C15.248,93.076 15.315,96.635 15.544,99.816C6.594,94.518 -1.57,87.69 -8.368,79.392C-1.87,81.949 6.154,83.16 15.544,82.904Z" style="fill:white;"/>
    </g>
    <g transform="matrix(0,1,1,0,125.507,-7.34705)">
        <path d="M147.9,25.635L148.702,25.635C155.021,25.635 160.839,25.036 165.954,23.839C160.839,29.625 155.021,34.712 148.702,39.001C148.602,34.812 148.401,30.323 147.9,25.635Z" style="fill:white;"/>
    </g>
    <g transform="matrix(-0.43274,0.901519,0.901519,0.43274,76.1836,-176.428)">
        <path d="M155.411,144.026C157.396,144.758 159.472,145.532 161.591,146.218C157.456,155.298 155.367,163.588 155.411,170.913C150.032,161.028 146.656,150.445 145.158,139.658C148.503,141.263 152.026,142.733 155.411,144.026Z" style="fill:white;"/>
    </g>
    <g transform="matrix(1,0,0,1,0,128.689)">
        <path d="M42.017,19.886C32.042,19.686 23.663,17.981 17.08,14.771C23.663,23.899 31.743,31.622 40.82,37.54C40.82,32.224 41.219,26.206 42.017,19.886Z" style="fill:white;"/>
    </g>
    <g transform="matrix(1,0,0,1,0,169.214)">
        <path d="M86.704,-0.276C83.812,3.937 80.819,7.648 78.026,10.958C86.006,12.062 94.185,12.062 102.365,10.958C97.178,8.15 91.991,4.438 86.704,-0.276Z" style="fill:white;"/>
    </g>
    <g transform="matrix(1,0,0,1,0,-117.056)">
        <path d="M78.325,162.519C88.599,158.307 98.774,155.097 108.649,152.89C103.761,146.37 98.774,140.553 93.587,135.537C88.599,143.161 83.413,152.188 78.325,162.519Z" style="fill:white;"/>
    </g>
    <g transform="matrix(1,0,0,1,0,64.7957)">
        <path d="M143.262,47.37C135.681,53.087 127.102,58.403 117.926,63.218C128,65.725 137.576,67.631 146.354,68.835C146.055,62.014 144.957,54.792 143.262,47.37Z" style="fill:white;"/>
    </g>
    <g transform="matrix(1,0,0,1,0,14.4433)">
        <path d="M132.888,64.722C131.491,64.02 129.995,63.318 128.499,62.616C126.105,70.74 123.412,79.065 120.32,87.391C118.225,93.108 116.03,98.625 113.736,103.941C123.711,98.725 132.788,92.907 140.569,86.689C138.474,79.467 135.88,72.144 132.888,64.722Z" style="fill:white;"/>
    </g>
    <g transform="matrix(1,0,0,1,0,-0.8028)">
        <path d="M138.873,82.977C140.968,88.293 142.763,93.61 144.359,98.825C147.451,96.218 150.244,93.509 152.838,90.801C148.449,88.193 143.76,85.585 138.873,82.977Z" style="fill:white;"/>
    </g>
    <g transform="matrix(1,0,0,1,0,117.055)">
        <path d="M101.766,18.482C91.492,22.694 81.318,26.005 71.443,28.111C76.33,34.631 81.418,40.448 86.505,45.464C91.492,37.841 96.679,28.813 101.766,18.482Z" style="fill:white;"/>
    </g>
    <g transform="matrix(-0.604965,0.796252,0.796252,0.604965,202.103,-110.399)">
        <path d="M182.124,93.036C181.996,95.194 181.868,97.351 181.88,99.491C181.828,103.208 181.895,106.767 182.124,109.947C173.173,104.651 165.009,97.822 158.211,89.525C164.709,92.082 172.733,93.293 182.124,93.036Z" style="fill:white;"/>
    </g>
    <g transform="matrix(1,0,0,1,0,-66.503)">
        <path d="M86.405,119.99C91.492,121.695 96.579,123.4 101.766,125.407C110.444,128.616 118.823,132.127 126.803,135.838C127.003,135.036 127.202,134.233 127.402,133.531C123.611,125.707 119.422,118.385 115.033,111.665C105.856,113.37 96.18,116.279 86.405,119.99Z" style="fill:white;"/>
    </g>
</svg>
